<?xml version="1.0" encoding="utf-8"?>
<!-- Generator: Adobe Illustrator 22.0.0, SVG Export Plug-In . SVG Version: 6.00 Build 0)  -->
<svg version="1.1" id="Capa_1" xmlns="http://www.w3.org/2000/svg" xmlns:xlink="http://www.w3.org/1999/xlink" x="0px" y="0px"
	 viewBox="0 0 490.6 490.6" style="enable-background:new 0 0 490.6 490.6;" xml:space="preserve">
<g>
	<g>
		<path d="M490.5,159.3c-0.1-2.6-1.2-5-3-6.8v-0.1l-74.7-74.7c-2-2-4.7-3.1-7.6-3.1H84.1c-2.9,0-5.6,1.2-7.6,3.2L3,152.5
			c-0.8,0.9-1.5,1.9-2,3c-0.1,0.3-0.2,0.7-0.3,1c-0.3,0.9-0.5,1.9-0.6,2.8c0,0.2-0.1,0.4-0.1,0.7v32c0,0.1,0.1,0.3,0.1,0.4
			c0,1.3,0.3,2.5,0.7,3.7c0,0.1,0.1,0.1,0.1,0.2c0.5,1.1,1.1,2,2,2.9c0.3,0.3,0.5,0.5,0.8,0.7c0.7,0.6,1.4,1.1,2.2,1.5
			c0.3,0.2,0.7,0.3,1,0.5c1.2,0.5,2.4,0.7,3.7,0.8h32v202.7c0,5.9,4.8,10.7,10.7,10.7H64c5.9,0,10.7-4.8,10.7-10.7V202.6h32V320
			c0,5.9,4.8,10.7,10.7,10.7H128c5.9,0,10.7-4.8,10.7-10.7V202.6H352v64V320c0,5.9,4.8,10.7,10.7,10.7h10.7
			c5.9,0,10.7-4.8,10.7-10.7V202.6h32V352v53.3c0,5.9,4.8,10.7,10.7,10.7h10.7c5.9,0,10.7-4.8,10.7-10.7V202.6h32
			c1.3,0,2.5-0.3,3.7-0.8c0.3-0.1,0.7-0.3,1-0.5c0.8-0.4,1.6-0.9,2.2-1.5c0.3-0.2,0.5-0.5,0.8-0.7c0.8-0.8,1.4-1.8,1.9-2.8
			c0-0.1,0.1-0.2,0.1-0.3c0.5-1.2,0.7-2.4,0.7-3.7c0-0.1,0.1-0.2,0.1-0.4v-32C490.6,159.7,490.5,159.5,490.5,159.3z"/>
	</g>
</g>
</svg>
