<?xml version="1.0" encoding="utf-8"?>
<!-- Generator: Adobe Illustrator 22.0.0, SVG Export Plug-In . SVG Version: 6.00 Build 0)  -->
<svg version="1.1" id="Ebene_1" xmlns="http://www.w3.org/2000/svg" xmlns:xlink="http://www.w3.org/1999/xlink" x="0px" y="0px"
	 viewBox="0 0 512 512" style="enable-background:new 0 0 512 512;" xml:space="preserve">
<path d="M272.8,289c-7.3,4.5-16.6,6.9-26.2,6.9c-9.6,0-19-2.5-26.2-6.9l-118.8-72.9c0,0-10.7-6.6-10.7,8.3c0,16.9,0,67.7,0,67.7
	c0,0.7,0,4.1,0,5.1c0,38.3,69.8,79.7,155.8,79.7s155.8-41.3,155.8-79.7c0-1.1,0-4.4,0-5.1c0,0,0-53.8,0-71.8c0-12-7.6-6.1-7.6-6.1
	L272.8,289z"/>
<path d="M444.1,158.2c9.1-5.6,9.1-14.8,0-20.4l-181-90.5c-9.1-5.6-24.1-5.6-33.2,0l-181,90.5c-9.1,5.6-9.1,14.8,0,20.4l181,111
	c9.1,5.6,24.1,5.6,33.2,0"/>
<path d="M439.7,324.7c0-30.7,0-122.6,0-122.6s0.1-5.8-3.4-3.9c-2.8,1.5-9.5,5.3-11.9,7.4c-2.8,2.4-2.1,7.8-2.1,7.8s0,83.5,0,111.3
	c0,1.6-1.4,2.3-2,2.7c-6.3,3.7-10.5,10.5-10.5,18.3c0,11.7,9.5,21.2,21.2,21.2c11.7,0,21.2-9.5,21.2-21.2c0-7.8-4.2-14.6-10.5-18.3
	C441,327,439.7,326.3,439.7,324.7z"/>
<path d="M452.3,327.4c4.2,5,6.7,11.5,6.7,18.5c0,16-13,29.1-29.1,29.1c-16.1,0-29.1-13-29.1-29.1c0-2.7,0.4-5.3,1-7.7
	c-23.8,30.9-84.4,57.2-155.4,57.2c-79.2,0-145.4-32.8-162.2-68H0v160.1h512V327.4H452.3z"/>
</svg>
