<?xml version="1.0" encoding="utf-8"?>
<!-- Generator: Adobe Illustrator 22.0.0, SVG Export Plug-In . SVG Version: 6.00 Build 0)  -->
<svg version="1.1" id="Ebene_1" xmlns="http://www.w3.org/2000/svg" xmlns:xlink="http://www.w3.org/1999/xlink" x="0px" y="0px"
	 viewBox="0 0 480 480" style="enable-background:new 0 0 480 480;" xml:space="preserve">
<path d="M456,168c-10.1,0-19.1,6.4-22.5,16H392v-72c0-13.3-10.7-24-24-24h-72V46.5c11-3.9,17.6-15.1,15.6-26.6
	C309.7,8.4,299.7,0,288,0h-96c-11.7,0-21.7,8.4-23.6,19.9c-2,11.5,4.6,22.8,15.6,26.6V88h-72c-13.3,0-24,10.7-24,24v72H46.5
	c-3.9-11-15.1-17.6-26.6-15.6C8.4,170.3,0,180.3,0,192v96c0,11.7,8.4,21.7,19.9,23.6c11.5,2,22.8-4.6,26.6-15.6H88v72
	c0,13.3,10.7,24,24,24h72v41.5c-11,3.9-17.6,15.1-15.6,26.6c2,11.5,12,19.9,23.6,19.9h96c11.7,0,21.7-8.4,23.6-19.9
	c2-11.5-4.6-22.8-15.6-26.6V392h72c13.3,0,24-10.7,24-24v-72h41.5c3.9,11,15.1,17.6,26.6,15.6c11.5-2,19.9-12,19.9-23.6v-96
	C480,178.7,469.3,168,456,168z M192,16h96c4.4,0,8,3.6,8,8s-3.6,8-8,8h-96c-4.4,0-8-3.6-8-8S187.6,16,192,16z M200,48h80v40h-80V48z
	 M24,296c-4.4,0-8-3.6-8-8v-96c0-4.4,3.6-8,8-8s8,3.6,8,8v96C32,292.4,28.4,296,24,296z M48,280v-80h40v80H48z M288,464h-96
	c-4.4,0-8-3.6-8-8s3.6-8,8-8h96c4.4,0,8,3.6,8,8S292.4,464,288,464z M280,432h-80v-40h80V432z M392,200h40v80h-40V200z M464,288
	c0,4.4-3.6,8-8,8s-8-3.6-8-8v-96c0-4.4,3.6-8,8-8s8,3.6,8,8V288z"/>
</svg>
